<?xml version="1.0" encoding="UTF-8"?>
<svg id="Layer_1" xmlns="http://www.w3.org/2000/svg" version="1.1" viewBox="0 0 230 131">
  <!-- Generator: Adobe Illustrator 29.3.1, SVG Export Plug-In . SVG Version: 2.1.0 Build 151)  -->
  <defs>
    <style>.st0 {
  fill: #231f20;
}

.st1, .st2 {
  fill: #d71920;
}

.st2 {
  fill-rule: evenodd;
}
</style>
  </defs>
  <rect class="st1" x="25" y="29.1" width="135.4" height="1"></rect>
  <g>
    <path class="st0" d="M31,64.2l1.5-.3c1.4-.3,1.7-.5,1.7-3v-21.9h-.4c-2.4,0-3,.3-4.1,1.9-1,1.4-1.6,2.9-2.8,5.7h-1.3l.3-9.3h23.9l.3,9.3h-1.3c-1.2-2.8-1.9-4.3-2.8-5.7-1.2-1.7-1.6-1.9-4.1-1.9h-.4v21.9c0,2.5.2,2.6,1.7,3l1.5.3v1.1h-13.7v-1.1Z"></path>
    <path class="st0" d="M52.2,60.5c0-3.6,2.7-5.1,7.3-6.2l4.1-1v-3.5c0-3.4-.6-4.4-2.9-4.4s-1.6.3-1.7,1.5c-.2,2.5-1.1,3.6-3.2,3.6s-2.7-.9-2.7-2.5c0-2.6,3.3-4.1,8.9-4.1s8,1.6,8,5.5v11.2c0,1.5.2,2.1.9,2.5.5.3,1.3.4,1.9.4v1c-.8.6-2.4,1.4-4.7,1.4s-3.8-.9-4.2-2.5h-.2c-1,1.3-2.8,2.5-5.5,2.5-3.8,0-6.1-1.9-6.1-5.3ZM63.5,61.7v-6.5l-1.9.2c-2.1.2-3.2,1.1-3.2,4s1.2,3.5,2.7,3.5,1.9-.5,2.3-1.2Z"></path>
    <path class="st0" d="M74.5,64.2l1.1-.3c1.3-.4,1.5-.6,1.5-2.3v-12.6c0-1.7-.2-1.9-1.3-2.6l-1.3-.9v-.8l8.5-1,.4.3v2.6c0,0,0,0,0,0,2.1-1.5,4.8-2.9,7.8-2.9s5.3,1.8,5.3,5.4v12.4c0,1.8.2,2,1.5,2.3l1.1.3v1.1h-11.3v-1.1l1-.2c1.2-.3,1.3-.4,1.3-2.3v-10.9c0-2.5-.9-3.2-2.8-3.2s-2.9.3-3.8.5v13.6c0,1.9.1,2,1.3,2.3l1,.2v1.1h-11.3v-1.1Z"></path>
    <path class="st0" d="M100.8,64.2l1.1-.3c1.3-.4,1.5-.6,1.5-2.3v-12.6c0-1.7-.2-1.9-1.3-2.6l-1.3-.9v-.8l8.5-1,.4.3v2.5c0,0,0,0,0,0,2.1-1.5,4.6-2.9,7.4-2.9s4,1,4.8,2.9h.2c2.2-1.5,4.6-2.9,7.6-2.9s5,1.8,5,5.4v12.4c0,1.8.2,2,1.5,2.3l1.1.3v1.1h-11.2v-1.1l.9-.2c1.1-.3,1.3-.4,1.3-2.3v-10.9c0-2.4-.6-3.2-2.5-3.2s-2.7.3-3.6.6c0,.3,0,.8,0,1.4v12.2c0,1.9.2,2,1.2,2.3l.9.2v1.1h-10.8v-1.1l.9-.2c1.1-.3,1.3-.4,1.3-2.3v-10.9c0-2.4-.6-3.2-2.5-3.2s-2.7.3-3.6.5v13.6c0,1.9.2,2,1.3,2.3l.9.2v1.1h-11.2v-1.1Z"></path>
    <path class="st0" d="M139.4,60.5c0-3.6,2.7-5.1,7.3-6.2l4.1-1v-3.5c0-3.4-.6-4.4-2.9-4.4s-1.6.3-1.7,1.5c-.2,2.5-1.1,3.6-3.2,3.6s-2.7-.9-2.7-2.5c0-2.6,3.3-4.1,8.9-4.1s8,1.6,8,5.5v11.2c0,1.5.2,2.1.9,2.5.5.3,1.3.4,1.9.4v1c-.8.6-2.4,1.4-4.7,1.4s-3.8-.9-4.2-2.5h-.2c-1,1.3-2.8,2.5-5.5,2.5-3.8,0-6.1-1.9-6.1-5.3ZM150.8,61.7v-6.5l-1.9.2c-2.1.2-3.2,1.1-3.2,4s1.2,3.5,2.7,3.5,1.9-.5,2.3-1.2Z"></path>
    <path class="st0" d="M160.4,70.7c0-1.5,1-2.4,2.5-2.4s2.3.6,2.7,2.1c.2.6.4.8.8.8.8,0,1.7-1,3.2-4.2l.4-1.1-7.5-17.1c-1.2-2.6-1.4-3-2.3-3.2l-.7-.2v-1.1h11.9v1.1l-1.1.3c-.8.2-1.3.6-1.3,1.6s.2,1.4.6,2.3l3.6,9h.2l3.4-9c.4-1,.6-1.8.6-2.4s-.4-1.2-1.3-1.4l-1.1-.3v-1.1h7.5v1.1l-.9.3c-1,.3-1.3.9-2.3,3.6l-7.5,18.1c-1.6,3.8-3.1,6.3-7,6.3s-4.2-1.2-4.2-3Z"></path>
  </g>
  <g>
    <path class="st0" d="M111.1,101.3l-.5-7.8h1.3c1.1,2.2,2,3.7,3,5.1,1.3,1.8,2.5,2.3,4.8,2.3s4.6-1.7,4.6-4.3-1.3-3.8-6-5.7c-5.8-2.2-7.6-4.8-7.6-8.9s4-8.4,10-8.4,5.6.4,7.1,1l.4,6.9h-1.3c-1.1-2.1-1.7-3.1-2.8-4.4-1.1-1.3-1.8-1.8-4-1.8s-4.3,1.4-4.3,3.8.8,3.4,5.5,5.2c6.2,2.4,8.5,4.9,8.5,8.9s-3.8,9.4-10.7,9.4-6.6-.6-8.2-1.3Z"></path>
    <path class="st0" d="M132.4,101l1.1-.3c1.3-.4,1.5-.6,1.5-2.3v-21.7c0-2-.1-2.2-1.3-2.7l-1.5-.7v-.9l8.9-.8.4.3s-.2,2-.2,4.7v2.7c0,2.2-.1,4-.1,4h.2c2.2-1.5,4.7-2.8,7.6-2.8s5.3,1.8,5.3,5.4v12.4c0,1.8.2,2,1.5,2.3l1.1.3v1.1h-11.3v-1.1l1-.2c1.2-.3,1.3-.4,1.3-2.3v-10.9c0-2.5-.9-3.2-2.8-3.2s-2.9.3-3.8.5v13.6c0,1.9.1,2,1.3,2.3l1,.2v1.1h-11.3v-1.1Z"></path>
    <path class="st0" d="M159,97.2c0-3.6,2.7-5.1,7.3-6.2l4.1-1v-3.5c0-3.4-.6-4.4-2.9-4.4s-1.6.3-1.7,1.5c-.2,2.5-1.1,3.6-3.2,3.6s-2.7-.9-2.7-2.5c0-2.6,3.3-4.1,8.9-4.1s8,1.6,8,5.5v11.2c0,1.5.2,2.1.9,2.5.5.3,1.3.4,1.9.4v1c-.8.6-2.4,1.4-4.7,1.4s-3.8-.9-4.2-2.5h-.2c-1,1.3-2.8,2.5-5.5,2.5-3.8,0-6.1-1.9-6.1-5.3ZM170.4,98.5v-6.5l-1.9.2c-2.1.2-3.2,1.1-3.2,4s1.2,3.5,2.7,3.5,1.9-.5,2.3-1.2Z"></path>
    <path class="st0" d="M181.3,101l1.1-.3c1.3-.4,1.5-.6,1.5-2.3v-21.7c0-2-.1-2.2-1.3-2.7l-1.5-.7v-.9l8.9-.8.4.3s-.2,2-.2,4.7v2.7c0,2.2-.1,4-.1,4h.2c2.2-1.5,4.7-2.8,7.6-2.8s5.3,1.8,5.3,5.4v12.4c0,1.8.2,2,1.5,2.3l1.1.3v1.1h-11.3v-1.1l1-.2c1.2-.3,1.3-.4,1.3-2.3v-10.9c0-2.5-.9-3.2-2.8-3.2s-2.9.3-3.8.5v13.6c0,1.9.1,2,1.3,2.3l1,.2v1.1h-11.3v-1.1Z"></path>
  </g>
  <path class="st2" d="M197.9,45l2.1,4.7,5.1.6c1,.1,1.5,1.4.7,2.1l-3.8,3.5,1,5.1c.2,1-.9,1.8-1.8,1.3l-4.5-2.5-4.5,2.5c-.9.5-2-.3-1.8-1.3l1-5.1-3.8-3.5c-.8-.7-.4-2,.7-2.1l5.1-.6,2.1-4.7c.4-1,1.8-1,2.2,0Z"></path>
  <rect class="st1" x="25" y="101.4" width="77.1" height="1"></rect>
  <g>
    <path class="st1" d="M25.3,77.8c0-3,1.9-4.7,4.7-4.7s4.1,1.3,4.3,3.3h-2.3c-.2-.8-1-1.4-2-1.4s-2.3.9-2.3,2.8.9,2.8,2.3,2.8,1.9-.6,2-1.4h2.3c-.2,2-2,3.3-4.3,3.3s-4.7-1.7-4.7-4.7Z"></path>
    <path class="st1" d="M35.5,73.3h2.1v9.2h-2.1v-9.2Z"></path>
    <path class="st1" d="M38.9,79.1c0-2.2,1.3-3.6,3.3-3.6s3.5,1.7,3.3,4h-4.5c0,.9.5,1.4,1.3,1.4s1.1-.3,1.2-.7h2c-.2,1.4-1.4,2.3-3.2,2.3s-3.4-1.4-3.4-3.5ZM41,78.2h2.4c0-.8-.5-1.1-1.2-1.1s-1.2.4-1.2,1.1Z"></path>
    <path class="st1" d="M45.7,75.6h2.3l.9,3.4.4,1.7h0l.4-1.7.9-3.4h2.3l-2.3,6.8h-2.7l-2.3-6.8Z"></path>
    <path class="st1" d="M53.1,79.1c0-2.2,1.3-3.6,3.3-3.6s3.5,1.7,3.3,4h-4.5c0,.9.5,1.4,1.3,1.4s1.1-.3,1.2-.7h2c-.2,1.4-1.4,2.3-3.2,2.3s-3.4-1.4-3.4-3.5ZM55.2,78.2h2.4c0-.8-.5-1.1-1.2-1.1s-1.2.4-1.2,1.1Z"></path>
    <path class="st1" d="M60.9,73.3h2.1v9.2h-2.1v-9.2Z"></path>
    <path class="st1" d="M64.3,79c0-2.4,1.1-3.5,2.7-3.5s1.8.5,2.1,1.2h.1v-1.1h2.1v6.8h-2.1v-1.1h-.1c-.3.7-1.1,1.2-2.1,1.2-1.6,0-2.7-1.2-2.7-3.5ZM69.1,79.3v-.6c0-.8-.4-1.5-1.3-1.5s-1.3.5-1.3,1.8.5,1.8,1.3,1.8,1.3-.7,1.3-1.5Z"></path>
    <path class="st1" d="M72.9,75.6h2v1.2h.2c.3-.9,1.2-1.3,2.1-1.3,1.4,0,2.4.8,2.4,2.8v4.1h-2.1v-3.7c0-1-.3-1.5-1.1-1.5s-1.3.7-1.3,1.4v3.8h-2.1v-6.8Z"></path>
    <path class="st1" d="M80.7,79c0-2.4,1.1-3.5,2.7-3.5s1.8.5,2.1,1.2h.1v-3.5h2.1v9.2h-2v-1.1h-.2c-.3.7-1.1,1.2-2.1,1.2-1.6,0-2.7-1.2-2.7-3.5ZM85.6,79.3v-.6c0-.8-.4-1.5-1.3-1.5s-1.3.5-1.3,1.8.5,1.8,1.3,1.8,1.3-.7,1.3-1.5Z"></path>
    <path class="st1" d="M25.3,90.3c0-3,1.9-4.7,4.7-4.7s4.1,1.3,4.3,3.3h-2.3c-.2-.8-1-1.4-2-1.4s-2.3.9-2.3,2.8.9,2.8,2.3,2.8,1.9-.6,2-1.4h2.3c-.2,2-2,3.3-4.3,3.3s-4.7-1.7-4.7-4.7Z"></path>
    <path class="st1" d="M35.5,85.8h2.1v1.6h-2.1v-1.6ZM35.5,88.1h2.1v6.8h-2.1v-6.8Z"></path>
    <path class="st1" d="M39.8,93.1v-3.3h-1.2v-1.7h1.2v-1.8l2.1-.2v2h1.3v1.7h-1.3v2.9c0,.4.2.5.5.5h.8v1.7h-1.5c-1.5,0-1.9-.7-1.9-1.8Z"></path>
    <path class="st1" d="M44.4,95.3h.8c.5,0,.8-.2,1-.7v-.3c.1,0-2.5-6.2-2.5-6.2h2.3l1.1,3.4.2.7h0l.2-.7,1-3.4h2.3l-2.6,7c-.5,1.5-1.5,1.9-2.7,1.9h-1.2v-1.7Z"></path>
    <path class="st1" d="M54.1,90.3c0-3,1.9-4.7,4.7-4.7s4.1,1.3,4.3,3.3h-2.3c-.2-.8-1-1.4-2-1.4s-2.3.9-2.3,2.8.9,2.8,2.3,2.8,1.9-.6,2-1.4h2.3c-.2,2-2,3.3-4.3,3.3s-4.7-1.7-4.7-4.7Z"></path>
    <path class="st1" d="M64,91.5c0-2.1,1.3-3.5,3.4-3.5s3.4,1.3,3.4,3.5-1.2,3.5-3.4,3.5-3.4-1.3-3.4-3.5ZM68.8,91.5c0-1.3-.5-1.8-1.3-1.8s-1.3.6-1.3,1.8.5,1.8,1.3,1.8,1.3-.5,1.3-1.8Z"></path>
    <path class="st1" d="M72.1,92.4v-4.3h2.1v3.7c0,1,.3,1.5,1.1,1.5s1.3-.7,1.3-1.4v-3.8h2.1v6.8h-2v-1.2h-.2c-.3.9-1.1,1.3-2.1,1.3-1.6,0-2.4-.9-2.4-2.7Z"></path>
    <path class="st1" d="M80.3,88.1h2v1.2h.2c.3-.9,1.2-1.3,2.1-1.3,1.4,0,2.4.8,2.4,2.8v4.1h-2.1v-3.7c0-1-.3-1.5-1.1-1.5s-1.3.7-1.3,1.4v3.8h-2.1v-6.8Z"></path>
    <path class="st1" d="M88.1,91.5c0-2.1,1.4-3.5,3.5-3.5s3.1,1.1,3.1,2.7h-2.1c-.1-.6-.5-.9-1.1-.9-.9,0-1.3.7-1.3,1.8s.5,1.8,1.3,1.8,1.1-.4,1.1-1h2.1c0,1.6-1.4,2.7-3.2,2.7s-3.4-1.4-3.4-3.5Z"></path>
    <path class="st1" d="M95.9,85.8h2.1v1.6h-2.1v-1.6ZM95.9,88.1h2.1v6.8h-2.1v-6.8Z"></path>
    <path class="st1" d="M99.6,85.8h2.1v9.2h-2.1v-9.2Z"></path>
  </g>
  <g>
    <path class="st1" d="M165.6,25.1h6.8v1.9h-4.5v1.7h3.9v1.8h-3.9v1.8h4.6v1.9h-6.8v-9.2Z"></path>
    <path class="st1" d="M174.1,25.1h2.2v7.2h3.9v2h-6.2v-9.2Z"></path>
    <path class="st1" d="M181.5,25.1h6.8v1.9h-4.5v1.7h3.9v1.8h-3.9v1.8h4.6v1.9h-6.8v-9.2Z"></path>
    <path class="st1" d="M189.3,29.6c0-3,1.9-4.7,4.7-4.7s4.1,1.3,4.3,3.3h-2.3c-.2-.8-1-1.4-2-1.4s-2.3.9-2.3,2.8.9,2.8,2.3,2.8,1.9-.6,2-1.4h2.3c-.2,2-2,3.3-4.3,3.3s-4.7-1.7-4.7-4.7Z"></path>
    <path class="st1" d="M201.2,27h-2.6v-1.9h7.6v1.9h-2.7v7.2h-2.3v-7.2Z"></path>
  </g>
</svg>