<svg viewBox="0 0 181.5 78.5" xmlns="http://www.w3.org/2000/svg"><path d="m.2 4.6h135.4v1h-135.4z" fill="#d71920"/><path d="m6.2 39.7 1.5-.3c1.4-.3 1.7-.5 1.7-3v-21.9h-.4c-2.4 0-3 .3-4.1 1.9-1 1.4-1.6 2.9-2.8 5.7h-1.3l.3-9.3h23.9l.3 9.3h-1.3c-1.2-2.8-1.9-4.3-2.8-5.7-1.2-1.7-1.6-1.9-4.1-1.9h-.4v21.9c0 2.5.2 2.6 1.7 3l1.5.3v1.1h-13.7z"/><path d="m27.4 36c0-3.6 2.7-5.1 7.3-6.2l4.1-1v-3.5c0-3.4-.6-4.4-2.9-4.4s-1.6.3-1.7 1.5c-.2 2.5-1.1 3.6-3.2 3.6s-2.7-.9-2.7-2.5c0-2.6 3.3-4.1 8.9-4.1s8 1.6 8 5.5v11.2c0 1.5.2 2.1.9 2.5.5.3 1.3.4 1.9.4v1c-.8.6-2.4 1.4-4.7 1.4s-3.8-.9-4.2-2.5h-.2c-1 1.3-2.8 2.5-5.5 2.5s-6.1-1.9-6.1-5.3h.1zm11.3 1.2v-6.5l-1.9.2c-2.1.2-3.2 1.1-3.2 4s1.2 3.5 2.7 3.5 1.9-.5 2.3-1.2z"/><path d="m49.7 39.7 1.1-.3c1.3-.4 1.5-.6 1.5-2.3v-12.6c0-1.7-.2-1.9-1.3-2.6l-1.3-.9v-.8l8.5-1 .4.3v2.6c2.1-1.5 4.8-2.9 7.8-2.9s5.3 1.8 5.3 5.4v12.4c0 1.8.2 2 1.5 2.3l1.1.3v1.1h-11.3v-1.1l1-.2c1.2-.3 1.3-.4 1.3-2.3v-10.9c0-2.5-.9-3.2-2.8-3.2s-2.9.3-3.8.5v13.6c0 1.9 0 2 1.3 2.3l1 .2v1.1h-11.3v-1.1z"/><path d="m76 39.7 1.1-.3c1.3-.4 1.5-.6 1.5-2.3v-12.6c0-1.7-.2-1.9-1.3-2.6l-1.3-.9v-.8l8.5-1 .4.3v2.5c2.1-1.5 4.6-2.9 7.4-2.9s4 1 4.8 2.9h.2c2.2-1.5 4.6-2.9 7.6-2.9s5 1.8 5 5.4v12.4c0 1.8.2 2 1.5 2.3l1.1.3v1.1h-11.2v-1.1l.9-.2c1.1-.3 1.3-.4 1.3-2.3v-10.9c0-2.4-.6-3.2-2.5-3.2s-2.7.3-3.6.6v13.6c0 1.9.2 2 1.2 2.3l.9.2v1.1h-10.8v-1.1l.9-.2c1.1-.3 1.3-.4 1.3-2.3v-10.9c0-2.4-.6-3.2-2.5-3.2s-2.7.3-3.6.5v13.6c0 1.9.2 2 1.3 2.3l.9.2v1.1h-11.2v-1.1h.2z"/><path d="m114.6 36c0-3.6 2.7-5.1 7.3-6.2l4.1-1v-3.5c0-3.4-.6-4.4-2.9-4.4s-1.6.3-1.7 1.5c-.2 2.5-1.1 3.6-3.2 3.6s-2.7-.9-2.7-2.5c0-2.6 3.3-4.1 8.9-4.1s8 1.6 8 5.5v11.2c0 1.5.2 2.1.9 2.5.5.3 1.3.4 1.9.4v1c-.8.6-2.4 1.4-4.7 1.4s-3.8-.9-4.2-2.5h-.2c-1 1.3-2.8 2.5-5.5 2.5s-6.1-1.9-6.1-5.3zm11.4 1.2v-6.5l-1.9.2c-2.1.2-3.2 1.1-3.2 4s1.2 3.5 2.7 3.5 1.9-.5 2.3-1.2z"/><path d="m135.6 46.2c0-1.5 1-2.4 2.5-2.4s2.3.6 2.7 2.1c.2.6.4.8.8.8.8 0 1.7-1 3.2-4.2l.4-1.1-7.5-17.1c-1.2-2.6-1.4-3-2.3-3.2l-.7-.2v-1.1h11.9v1.1l-1.1.3c-.8.2-1.3.6-1.3 1.6s.2 1.4.6 2.3l3.6 9h.2l3.4-9c.4-1 .6-1.8.6-2.4s-.4-1.2-1.3-1.4l-1.1-.3v-1.1h7.5v1.1l-.9.3c-1 .3-1.3.9-2.3 3.6l-7.5 18.1c-1.6 3.8-3.1 6.3-7 6.3s-4.2-1.2-4.2-3h-.2z"/><path d="m86.3 76.8-.5-7.8h1.3c1.1 2.2 2 3.7 3 5.1 1.3 1.8 2.5 2.3 4.8 2.3s4.6-1.7 4.6-4.3-1.3-3.8-6-5.7c-5.8-2.2-7.6-4.8-7.6-8.9s4-8.4 10-8.4 5.6.4 7.1 1l.4 6.9h-1.3c-1.1-2.1-1.7-3.1-2.8-4.4s-1.8-1.8-4-1.8-4.3 1.4-4.3 3.8.8 3.4 5.5 5.2c6.2 2.4 8.5 4.9 8.5 8.9s-3.8 9.4-10.7 9.4-6.6-.6-8.2-1.3z"/><path d="m107.6 76.5 1.1-.3c1.3-.4 1.5-.6 1.5-2.3v-21.7c0-2-.1-2.2-1.3-2.7l-1.5-.7v-.9l8.9-.8.4.3s-.2 2-.2 4.7v2.7c0 2.2-.1 4-.1 4h.2c2.2-1.5 4.7-2.8 7.6-2.8s5.3 1.8 5.3 5.4v12.4c0 1.8.2 2 1.5 2.3l1.1.3v1.1h-11.3v-1.1l1-.2c1.2-.3 1.3-.4 1.3-2.3v-10.9c0-2.5-.9-3.2-2.8-3.2s-2.9.3-3.8.5v13.6c0 1.9.1 2 1.3 2.3l1 .2v1.1h-11.3v-1.1h.1z"/><path d="m134.2 72.7c0-3.6 2.7-5.1 7.3-6.2l4.1-1v-3.5c0-3.4-.6-4.4-2.9-4.4s-1.6.3-1.7 1.5c-.2 2.5-1.1 3.6-3.2 3.6s-2.7-.9-2.7-2.5c0-2.6 3.3-4.1 8.9-4.1s8 1.6 8 5.5v11.2c0 1.5.2 2.1.9 2.5.5.3 1.3.4 1.9.4v1c-.8.6-2.4 1.4-4.7 1.4s-3.8-.9-4.2-2.5h-.2c-1 1.3-2.8 2.5-5.5 2.5s-6.1-1.9-6.1-5.3zm11.4 1.3v-6.5l-1.9.2c-2.1.2-3.2 1.1-3.2 4s1.2 3.5 2.7 3.5 1.9-.5 2.3-1.2z"/><path d="m156.5 76.5 1.1-.3c1.3-.4 1.5-.6 1.5-2.3v-21.7c0-2-.1-2.2-1.3-2.7l-1.5-.7v-.9l8.9-.8.4.3s-.2 2-.2 4.7v2.7c0 2.2-.1 4-.1 4h.2c2.2-1.5 4.7-2.8 7.6-2.8s5.3 1.8 5.3 5.4v12.4c0 1.8.2 2 1.5 2.3l1.1.3v1.1h-11.3v-1.1l1-.2c1.2-.3 1.3-.4 1.3-2.3v-10.9c0-2.5-.9-3.2-2.8-3.2s-2.9.3-3.8.5v13.6c0 1.9.1 2 1.3 2.3l1 .2v1.1h-11.3v-1.1h.1z"/><g fill="#d71920"><path d="m173.1 20.5 2.1 4.7 5.1.6c1 0 1.5 1.4.7 2.1l-3.8 3.5 1 5.1c.2 1-.9 1.8-1.8 1.3l-4.5-2.5-4.5 2.5c-.9.5-2-.3-1.8-1.3l1-5.1-3.8-3.5c-.8-.7-.4-2 .7-2.1l5.1-.6 2.1-4.7c.4-1 1.8-1 2.2 0z" fill-rule="evenodd"/><path d="m.2 76.9h77.1v1h-77.1z"/><path d="m.5 53.3c0-3 1.9-4.7 4.7-4.7s4.1 1.3 4.3 3.3h-2.3c-.2-.8-1-1.4-2-1.4s-2.3.9-2.3 2.8.9 2.8 2.3 2.8 1.9-.6 2-1.4h2.3c-.2 2-2 3.3-4.3 3.3s-4.7-1.7-4.7-4.7z"/><path d="m10.7 48.8h2.1v9.2h-2.1z"/><path d="m14.1 54.6c0-2.2 1.3-3.6 3.3-3.6s3.5 1.7 3.3 4h-4.5c0 .9.5 1.4 1.3 1.4s1.1-.3 1.2-.7h2c-.2 1.4-1.4 2.3-3.2 2.3s-3.4-1.4-3.4-3.5zm2.1-.9h2.4c0-.8-.5-1.1-1.2-1.1s-1.2.4-1.2 1.1z"/><path d="m20.9 51.1h2.3l.9 3.4.4 1.7.4-1.7.9-3.4h2.3l-2.3 6.8h-2.7l-2.3-6.8z"/><path d="m28.3 54.6c0-2.2 1.3-3.6 3.3-3.6s3.5 1.7 3.3 4h-4.5c0 .9.5 1.4 1.3 1.4s1.1-.3 1.2-.7h2c-.2 1.4-1.4 2.3-3.2 2.3s-3.4-1.4-3.4-3.5zm2.1-.9h2.4c0-.8-.5-1.1-1.2-1.1s-1.2.4-1.2 1.1z"/><path d="m36.1 48.8h2.1v9.2h-2.1z"/><path d="m39.5 54.5c0-2.4 1.1-3.5 2.7-3.5s1.8.5 2.1 1.2v-1.1h2.1v6.8h-2.1v-1.1c-.3.7-1.1 1.2-2.1 1.2-1.6 0-2.7-1.2-2.7-3.5zm4.8.3v-.6c0-.8-.4-1.5-1.3-1.5s-1.3.5-1.3 1.8.5 1.8 1.3 1.8 1.3-.7 1.3-1.5z"/><path d="m48.1 51.1h2v1.2h.2c.3-.9 1.2-1.3 2.1-1.3 1.4 0 2.4.8 2.4 2.8v4.1h-2.1v-3.7c0-1-.3-1.5-1.1-1.5s-1.3.7-1.3 1.4v3.8h-2.1v-6.8z"/><path d="m55.9 54.5c0-2.4 1.1-3.5 2.7-3.5s1.8.5 2.1 1.2v-3.5h2.1v9.2h-2v-1.1h-.2c-.3.7-1.1 1.2-2.1 1.2-1.6 0-2.7-1.2-2.7-3.5zm4.9.3v-.6c0-.8-.4-1.5-1.3-1.5s-1.3.5-1.3 1.8.5 1.8 1.3 1.8 1.3-.7 1.3-1.5z"/><path d="m.5 65.8c0-3 1.9-4.7 4.7-4.7s4.1 1.3 4.3 3.3h-2.3c-.2-.8-1-1.4-2-1.4s-2.3.9-2.3 2.8.9 2.8 2.3 2.8 1.9-.6 2-1.4h2.3c-.2 2-2 3.3-4.3 3.3s-4.7-1.7-4.7-4.7z"/><path d="m10.7 61.3h2.1v1.6h-2.1zm0 2.3h2.1v6.8h-2.1z"/><path d="m15 68.6v-3.3h-1.2v-1.7h1.2v-1.8l2.1-.2v2h1.3v1.7h-1.3v2.9c0 .4.2.5.5.5h.8v1.7h-1.5c-1.5 0-1.9-.7-1.9-1.8z"/><path d="m19.6 70.8h.8c.5 0 .8-.2 1-.7v-.3l-2.5-6.2h2.3l1.1 3.4.2.7.2-.7 1-3.4h2.3l-2.6 7c-.5 1.5-1.5 1.9-2.7 1.9h-1.2v-1.7z"/><path d="m29.3 65.8c0-3 1.9-4.7 4.7-4.7s4.1 1.3 4.3 3.3h-2.3c-.2-.8-1-1.4-2-1.4s-2.3.9-2.3 2.8.9 2.8 2.3 2.8 1.9-.6 2-1.4h2.3c-.2 2-2 3.3-4.3 3.3s-4.7-1.7-4.7-4.7z"/><path d="m39.2 67c0-2.1 1.3-3.5 3.4-3.5s3.4 1.3 3.4 3.5-1.2 3.5-3.4 3.5-3.4-1.3-3.4-3.5zm4.8 0c0-1.3-.5-1.8-1.3-1.8s-1.3.6-1.3 1.8.5 1.8 1.3 1.8 1.3-.5 1.3-1.8z"/><path d="m47.3 67.9v-4.3h2.1v3.7c0 1 .3 1.5 1.1 1.5s1.3-.7 1.3-1.4v-3.8h2.1v6.8h-2v-1.2h-.2c-.3.9-1.1 1.3-2.1 1.3-1.6 0-2.4-.9-2.4-2.7z"/><path d="m55.5 63.6h2v1.2h.2c.3-.9 1.2-1.3 2.1-1.3 1.4 0 2.4.8 2.4 2.8v4.1h-2.1v-3.7c0-1-.3-1.5-1.1-1.5s-1.3.7-1.3 1.4v3.8h-2.1v-6.8z"/><path d="m63.3 67c0-2.1 1.4-3.5 3.5-3.5s3.1 1.1 3.1 2.7h-2.1c0-.6-.5-.9-1.1-.9-.9 0-1.3.7-1.3 1.8s.5 1.8 1.3 1.8 1.1-.4 1.1-1h2.1c0 1.6-1.4 2.7-3.2 2.7s-3.4-1.4-3.4-3.5z"/><path d="m71.1 61.3h2.1v1.6h-2.1zm0 2.3h2.1v6.8h-2.1z"/><path d="m74.8 61.3h2.1v9.2h-2.1z"/><path d="m140.8.6h6.8v1.9h-4.5v1.7h3.9v1.8h-3.9v1.8h4.6v1.9h-6.8v-9.2h-.1z"/><path d="m149.3.6h2.2v7.2h3.9v2h-6.2v-9.2z"/><path d="m156.7.6h6.8v1.9h-4.5v1.7h3.9v1.8h-3.9v1.8h4.6v1.9h-6.8v-9.2h-.1z"/><path d="m164.5 5.1c0-3 1.9-4.7 4.7-4.7s4.1 1.3 4.3 3.3h-2.3c-.2-.8-1-1.4-2-1.4s-2.3.9-2.3 2.8.9 2.8 2.3 2.8 1.9-.6 2-1.4h2.3c-.2 2-2 3.3-4.3 3.3s-4.7-1.7-4.7-4.7z"/><path d="m176.4 2.5h-2.6v-1.9h7.6v1.9h-2.7v7.2h-2.3z"/></g></svg>